<svg width="256" height="256" viewBox="0 0 256 256" fill="none" xmlns="http://www.w3.org/2000/svg">
<g clip-path="url(#clip0_1097_6042)">
<path d="M128 256H128.516C199.226 256 256.516 198.968 256.516 128C256.516 57.0323 199.484 0 128.516 0H128C57.0323 0 0 57.0323 0 128C0 198.968 57.2904 256 128 256Z" fill="#00FFFF"/>
<path d="M123.097 232.441H133.42C204.388 232.441 243.097 193.99 243.097 136.441C243.097 66.2479 185.549 14.377 128.259 14.377C70.9684 14.377 13.4199 66.2479 13.4199 136.441C13.4199 193.99 52.1297 232.441 123.097 232.441Z" fill="#00DFDF"/>
<path d="M128.258 28.7334C79.4841 28.7334 25.8066 83.7011 25.8066 143.83C25.8066 183.83 50.3228 209.12 87.4841 209.12C100.903 209.12 118.968 208.862 128.258 208.862C137.549 208.862 155.613 209.12 169.032 209.12C206.194 209.12 230.71 183.83 230.71 143.83C230.71 83.7011 177.032 28.7334 128.258 28.7334Z" fill="#00C0C0"/>
<path d="M72.5177 193.061C86.1951 193.061 103.485 185.319 128.26 185.319C153.034 185.319 170.324 193.061 184.002 193.061C206.969 193.061 218.066 171.125 218.066 149.706C218.066 106.351 171.098 43.1255 129.55 43.1255H126.969C85.4209 43.1255 38.4531 106.351 38.4531 149.706C38.4531 171.125 49.55 193.061 72.5177 193.061Z" fill="#00A0A0"/>
<path d="M70.7094 180.475C85.6772 180.475 103.742 161.636 128.258 161.636C152.774 161.636 170.838 180.475 185.806 180.475C196.903 180.475 206.193 169.894 206.193 154.668C206.193 133.249 187.871 106.41 171.355 86.2812C164.129 77.507 148.903 57.3779 129.29 57.3779H127.226C107.613 57.3779 92.3868 77.507 85.161 86.2812C68.6449 106.41 50.3223 133.249 50.3223 154.668C50.3223 169.894 59.6127 180.475 70.7094 180.475Z" fill="#008080"/>
<path d="M191.07 144.173C180.425 127.337 168.074 109.109 155.602 92.2966C145.635 78.8643 140.634 71.9043 128.373 71.9043C128.335 71.9043 128.296 71.9043 128.257 71.9043C128.218 71.9043 128.182 71.9043 128.141 71.9043C115.88 71.9043 110.879 78.8643 100.913 92.2966C88.4404 109.109 76.0894 127.337 65.4442 144.173C61.9475 149.703 57.4055 161.12 66.6081 166.828C69.0107 168.315 71.2274 168.939 73.3307 168.939C78.5694 168.939 83.083 165.076 87.8649 161.128C103.346 148.348 115.008 138.178 128.141 138.178C128.18 138.178 128.218 138.178 128.257 138.178C128.296 138.178 128.335 138.178 128.373 138.178C141.506 138.178 153.168 148.348 168.649 161.128C173.431 165.076 177.945 168.939 183.184 168.939C185.287 168.939 187.504 168.315 189.906 166.828C199.109 161.12 194.567 149.703 191.07 144.173Z" fill="black"/>
</g>
<defs>
<clipPath id="clip0_1097_6042">
<rect width="256" height="256" rx="80" fill="white"/>
</clipPath>
</defs>
</svg>
