<svg width="256" height="256" viewBox="0 0 256 256" fill="none" xmlns="http://www.w3.org/2000/svg">
<rect width="256" height="256" rx="80" fill="#FFD82D"/>
<path d="M91.1725 164.466C85.2696 164.466 80.0932 163.331 75.6433 161.061C71.2843 158.79 68.015 155.294 65.8355 150.572C63.6559 145.759 62.884 139.583 63.5197 132.046C64.0646 123.328 65.8355 115.745 68.8323 109.297C71.92 102.849 76.0974 97.8543 81.3646 94.3126C86.6318 90.7709 92.8526 89 100.027 89C105.748 89 111.015 90.3168 115.828 92.9504C120.642 95.4932 124.501 99.2165 127.407 104.12C130.313 108.934 131.766 114.837 131.766 121.829C131.766 127.914 130.722 133.59 128.633 138.857C126.544 144.033 123.638 148.528 119.915 152.343C116.283 156.157 112.014 159.154 107.11 161.333C102.206 163.422 96.8938 164.466 91.1725 164.466ZM39 189.803L58.8882 90.0898H79.0489L76.052 104.665L71.4205 126.461L68.5599 148.256L60.2504 189.803H39ZM88.7205 146.894C92.9888 146.894 96.7121 145.895 99.8906 143.897C103.069 141.808 105.566 138.993 107.383 135.451C109.29 131.819 110.243 127.596 110.243 122.783C110.243 117.788 108.79 113.838 105.884 110.932C102.978 108.025 98.8463 106.572 93.4883 106.572C89.4016 106.572 85.7237 107.617 82.4544 109.706C79.1851 111.703 76.6423 114.519 74.826 118.151C73.0098 121.693 72.1016 125.87 72.1016 130.684C72.1016 135.678 73.5546 139.629 76.4607 142.535C79.3667 145.441 83.4533 146.894 88.7205 146.894Z" fill="black"/>
<path d="M216.852 163.376H198.122V125.889L160.222 163.789L145.775 149.342L183.675 111.442H139.376V92.712H216.852V163.376Z" fill="black"/>
<path d="M216.849 163.376H198.119V125.889L160.219 163.789L145.772 149.342L183.672 111.442H139.373V92.7118H216.849V163.376Z" fill="black"/>
</svg>
